<?xml version="1.0" encoding="UTF-8"?>
<svg width="1440px" height="707px" viewBox="0 0 1440 707" version="1.1" xmlns="http://www.w3.org/2000/svg" xmlns:xlink="http://www.w3.org/1999/xlink">
    <!-- Generator: Sketch 46.2 (44496) - http://www.bohemiancoding.com/sketch -->
    <title>Group 15</title>
    <desc>Created with Sketch.</desc>
    <defs></defs>
    <g id="Desktop-HD" stroke="none" stroke-width="1" fill="none" fill-rule="evenodd">
        <g id="CNM-Mock-Up-Desktop-V2" transform="translate(0.000000, -2647.000000)">
            <g id="Group-15" transform="translate(-258.000000, 2271.000000)">
                <rect id="Rectangle-9" fill="#F6BE00" x="258" y="379" width="1440" height="700"></rect>
                <polygon id="Triangle" fill="#F5A623" opacity="0.35" transform="translate(1570.864120, 565.864120) rotate(-315.000000) translate(-1570.864120, -565.864120) " points="1570.86412 298.163924 2103.41664 833.564316 1038.3116 833.564316"></polygon>
                <polygon id="Triangle" fill="#F5A623" opacity="0.368048007" transform="translate(385.260002, 953.260002) rotate(-135.000000) translate(-385.260002, -953.260002) " points="385.260002 771.000385 747.840305 1135.51962 22.6796995 1135.51962"></polygon>
                <g id="Group-14" transform="translate(258.000000, 377.000000)" fill="#FFFFFF">
                    <g id="White-Arrow-Array" opacity="0.641700634" transform="translate(1157.493188, 0.000000)">
                        <g id="Group">
                            <polygon id="Fill-2" opacity="0.644746377" points="219.384454 0 238.658261 19.4610495 220.683812 37.6232181 245.62914 62.8206226 263.609442 44.6614094 282.889102 64.126892 282.889102 0"></polygon>
                            <polygon id="Fill-1" opacity="0.4" points="111.837646 67.9465154 21.7576196 67.9479931 49.1041258 95.5554941 17.8361345 127.129089 53.2275382 162.857921 84.4852868 131.302058 111.834719 158.919903"></polygon>
                            <polygon id="Fill-3" points="178.339319 32.4700162 152.330215 32.4700162 160.228788 40.4391461 146.256303 54.5628144 156.465333 64.8770229 170.446598 50.760743 178.339319 58.7328282"></polygon>
                            <polygon id="Fill-4" opacity="0.5" points="135.65651 209.789503 149.639238 195.673223 157.530495 203.645308 157.530495 177.382496 131.521391 177.382496 139.419965 185.351626 125.447479 199.475294"></polygon>
                            <polygon id="Fill-5" opacity="0.2" points="199.68623 162.437398 232.152615 129.659494 250.478242 148.170395 250.478242 87.1880065 190.084444 87.1880065 208.426167 105.692997 175.983193 138.488633"></polygon>
                            <polygon id="Fill-6" opacity="0.6" points="165.203037 305.545988 197.669422 272.768084 215.995049 291.278985 215.995049 230.296596 155.601251 230.296596 173.942974 248.801587 141.5 281.597223"></polygon>
                            <polygon id="Fill-7" opacity="0.6" points="21.7276617 254.949757 49.9901565 283.461598 0 333.995309 36.523952 370.898897 86.5506896 320.390307 114.786846 348.913969 114.786846 254.949757"></polygon>
                        </g>
                    </g>
                    <g id="Group" opacity="0.384793931" transform="translate(0.000000, 328.591750)">
                        <polygon id="Fill-2" opacity="0.644746377" points="219.002129 0 238.242348 19.4824646 220.299223 37.6646189 245.201078 62.8897507 263.150046 44.710555 282.396107 64.1974575 282.396107 0"></polygon>
                        <polygon id="Fill-1" opacity="0.4" points="111.642745 68.0212841 21.7197023 68.0227634 49.0185513 95.6606439 17.8050512 127.268983 53.1347778 163.037131 84.3380531 131.446544 111.639823 159.094779"></polygon>
                        <polygon id="Fill-3" points="178.028525 32.5057464 152.064747 32.5057464 159.949555 40.4836455 146.00142 54.6228556 156.192659 64.9484139 170.149559 50.8166003 178.028525 58.7974581"></polygon>
                        <polygon id="Fill-4" opacity="0.5" points="135.420099 210.020356 149.37846 195.888543 157.255965 203.8694 157.255965 177.577689 131.292187 177.577689 139.176996 185.555588 125.22886 199.694798"></polygon>
                        <polygon id="Fill-5" opacity="0.2" points="199.338234 162.616145 231.74804 129.802172 250.041731 148.333442 250.041731 87.2839486 189.753181 87.2839486 208.06294 105.809302 175.676505 138.641027"></polygon>
                        <polygon id="Fill-6" opacity="0.6" points="164.915135 305.882212 197.324941 273.068239 215.618632 291.59951 215.618632 230.550016 155.330083 230.550016 173.639841 249.075369 141.253406 281.907094"></polygon>
                        <polygon id="Fill-7" opacity="0.6" points="21.6897966 255.230305 49.903038 283.773521 0 334.362839 36.4603012 371.307036 86.3998565 320.742866 114.586805 349.297916 114.586805 255.230305"></polygon>
                    </g>
                    <g id="Group" opacity="0.4" transform="translate(950.517711, 325.604552)">
                        <polygon id="Fill-2" opacity="0.644746377" points="219.002129 0 238.242348 19.4824646 220.299223 37.6646189 245.201078 62.8897507 263.150046 44.710555 282.396107 64.1974575 282.396107 0"></polygon>
                        <polygon id="Fill-1" points="111.642745 68.0212841 21.7197023 68.0227634 49.0185513 95.6606439 17.8050512 127.268983 53.1347778 163.037131 84.3380531 131.446544 111.639823 159.094779"></polygon>
                        <polygon id="Fill-3" points="178.028525 32.5057464 152.064747 32.5057464 159.949555 40.4836455 146.00142 54.6228556 156.192659 64.9484139 170.149559 50.8166003 178.028525 58.7974581"></polygon>
                        <polygon id="Fill-4" opacity="0.5" points="135.420099 210.020356 149.37846 195.888543 157.255965 203.8694 157.255965 177.577689 131.292187 177.577689 139.176996 185.555588 125.22886 199.694798"></polygon>
                        <polygon id="Fill-5" opacity="0.2" points="199.338234 162.616145 231.74804 129.802172 250.041731 148.333442 250.041731 87.2839486 189.753181 87.2839486 208.06294 105.809302 175.676505 138.641027"></polygon>
                        <polygon id="Fill-6" opacity="0.6" points="164.915135 305.882212 197.324941 273.068239 215.618632 291.59951 215.618632 230.550016 155.330083 230.550016 173.639841 249.075369 141.253406 281.907094"></polygon>
                        <polygon id="Fill-7" opacity="0.6" points="21.6897966 255.230305 49.903038 283.773521 0 334.362839 36.4603012 371.307036 86.3998565 320.742866 114.586805 349.297916 114.586805 255.230305"></polygon>
                    </g>
                    <g id="Group-4" opacity="0.3" transform="translate(258.964578, 0.995733)">
                        <polygon id="Fill-2" opacity="0.4" points="400.82841 0 436.035338 36.2545671 403.201911 70.0894102 448.768848 117.030403 481.612966 83.2010657 516.830585 119.463891 516.830585 0"></polygon>
                        <polygon id="Fill-1" opacity="0.4" points="190.856177 103.429015 26.3094986 103.431768 76.2626008 154.862602 19.1462307 213.681989 83.7947235 280.242291 140.892384 221.455937 190.850831 272.906041"></polygon>
                        <polygon id="Fill-3" points="326.11081 60.3311814 278.600703 60.3311814 293.028807 75.17711 267.505656 101.488511 286.154208 120.703156 311.693397 94.4055194 326.11081 109.256954"></polygon>
                        <polygon id="Fill-4" opacity="0.7" points="248.307749 391.306249 273.84961 365.008612 288.26435 379.860047 288.26435 330.934274 240.754243 330.934274 255.182348 345.780203 229.659197 372.091604"></polygon>
                        <polygon id="Fill-5" opacity="0.2" points="364.992582 302.546182 424.298026 241.48325 457.772939 275.967758 457.772939 162.361856 347.453267 162.361856 380.957582 196.835352 321.694904 257.931317"></polygon>
                        <polygon id="Fill-6" opacity="0.6" points="302.201866 569.600382 361.507309 508.53745 394.982222 543.021958 394.982222 429.416056 284.662551 429.416056 318.166865 463.889552 258.904188 524.985517"></polygon>
                        <polygon id="Fill-7" opacity="0.6" points="39.6893153 475.551665 91.3156285 528.667221 0 622.807971 66.7172873 691.556761 158.099737 597.462808 209.677939 650.600387 209.677939 475.551665"></polygon>
                    </g>
                </g>
            </g>
        </g>
    </g>
</svg>